<?xml version="1.0" encoding="utf-8"?>
<!-- Generator: Adobe Illustrator 18.1.1, SVG Export Plug-In . SVG Version: 6.00 Build 0)  -->
<!DOCTYPE svg PUBLIC "-//W3C//DTD SVG 1.1//EN" "http://www.w3.org/Graphics/SVG/1.1/DTD/svg11.dtd">
<svg version="1.1" id="Layer_1" xmlns="http://www.w3.org/2000/svg" xmlns:xlink="http://www.w3.org/1999/xlink" x="0px" y="0px"
	 viewBox="0 0 272 272" enable-background="new 0 0 272 272" xml:space="preserve">
<g>
	<g>
		<path d="M53.1,164.8H37V77.5H26.7V65.4l1.2-0.2c6.1-0.8,9.1-2.8,12.6-7.7l1.9-2.5h10.6V164.8z"/>
		<path d="M92.4,165.8h-8.3c-13.6,0-20.3-6.7-20.3-20.3V74.9c0-13.6,6.7-20.3,20.3-20.3h8.3c13.6,0,20.3,6.7,20.3,20.3v70.6
			C112.7,159.1,106,165.8,92.4,165.8z M89.9,69.3h-3.1c-4.4,0-6.4,2-6.4,6.4v69c0,4.4,2,6.4,6.4,6.4h3.1c4.2,0,6.2-2,6.2-6.4v-69
			C96.2,71.3,94.1,69.3,89.9,69.3z"/>
		<path d="M150.7,165.8h-8.3c-13.6,0-20.3-6.7-20.3-20.3V74.9c0-13.6,6.7-20.3,20.3-20.3h8.3c13.6,0,20.3,6.7,20.3,20.3v70.6
			C171,159.1,164.3,165.8,150.7,165.8z M148.2,69.3h-3.1c-4.4,0-6.4,2-6.4,6.4v69c0,4.4,2,6.4,6.4,6.4h3.1c4.2,0,6.2-2,6.2-6.4v-69
			C154.4,71.3,152.4,69.3,148.2,69.3z"/>
		<path d="M192.7,121.1c-8.7,0-13.3-4.8-13.3-13.6V68.3c0-8.9,4.7-13.7,13.3-13.7h6.9c8.6,0,13.3,4.8,13.3,13.7v23.9l10.9-37h11.1
			l-14.7,44.3c0.9-0.2,1.9-0.3,3-0.3h6.2c8.7,0,13.4,4.8,13.4,13.6V152c0,8.9-4.7,13.7-13.4,13.7h-6.7c-8.7,0-13.4-4.8-13.4-13.7
			v-23.7l-10.9,36.9h-10.9l14.5-44.2c-0.9,0.2-2,0.2-3,0.2H192.7z M195,66.1c-2.7,0-3.9,1.6-3.9,4.5v34.8c0,3,1.2,4.5,3.9,4.5h2.5
			c2.7,0,3.9-1.6,3.9-4.5V70.7c0-3-1.2-4.5-3.9-4.5H195z M224.5,110.3c-2.5,0-3.9,1.6-3.9,4.5v34.8c0,3,1.4,4.5,4.1,4.5h2.3
			c2.7,0,4.1-1.6,4.1-4.5v-34.8c0-3-1.4-4.5-4.1-4.5H224.5z"/>
	</g>
	<g>
		<path d="M50.2,228.7h-7.8l-1-8.1h-8.2l-1,8.1H25l7.4-51.6h10.4L50.2,228.7z M34.1,213.6h6.4l-3.2-26L34.1,213.6z"/>
		<path d="M76,219.6c0,6.4-3.2,9.6-9.6,9.6h-3.8c-6.4,0-9.6-3.2-9.6-9.6v-42.4h7.9v42c0,2.1,1,3,3,3h1.3c2,0,2.9-1,2.9-3v-42H76
			V219.6z"/>
		<path d="M86.1,228.7v-44.4H79v-7.1h22v7.1h-7.1v44.4H86.1z"/>
		<path d="M119.5,198.9v-21.7h7.9v51.5h-7.9v-22.7H112v22.7h-7.9v-51.5h7.9v21.7H119.5z"/>
		<path d="M149.6,177.2v7.1H140v14.6h9.3v7.1H140v15.5h9.8v7.1h-17.7v-51.5H149.6z"/>
		<path d="M169,228.7l-8-34.7l0.1,9.1v25.6H154v-51.5h9.2l7.4,31.8l-0.1-8.6v-23.2h7.1v51.5H169z"/>
		<path d="M187.7,228.7v-44.4h-7.1v-7.1h22v7.1h-7.1v44.4H187.7z"/>
		<path d="M213.6,228.7h-7.9v-51.5h7.9V228.7z"/>
		<path d="M241.3,207.6v12c0,6.4-3.2,9.6-9.6,9.6h-3.9c-6.4,0-9.6-3.2-9.6-9.6v-33.3c0-6.4,3.2-9.6,9.6-9.6h3.8
			c6.4,0,9.5,3.1,9.5,9.5v10.5h-7.7v-10.1c0-2.1-1-3-2.9-3h-1.3c-2.1,0-3,1-3,3v32.5c0,2.1,1,3,3,3h1.5c2,0,2.9-1,2.9-3v-11.6H241.3
			z"/>
	</g>
	<g>
		<path d="M236.5,272H35.5C15.9,272,0,256.1,0,236.5V35.5C0,15.9,15.9,0,35.5,0h201.1C256.1,0,272,15.9,272,35.5v201.1
			C272,256.1,256.1,272,236.5,272z M35.5,15C24.2,15,15,24.2,15,35.5v201.1c0,11.3,9.2,20.5,20.5,20.5h201.1
			c11.3,0,20.5-9.2,20.5-20.5V35.5c0-11.3-9.2-20.5-20.5-20.5H35.5z"/>
	</g>
</g>
</svg>
