<?xml version="1.0" encoding="utf-8"?>
<!-- Generator: Adobe Illustrator 18.1.1, SVG Export Plug-In . SVG Version: 6.00 Build 0)  -->
<!DOCTYPE svg PUBLIC "-//W3C//DTD SVG 1.1//EN" "http://www.w3.org/Graphics/SVG/1.1/DTD/svg11.dtd">
<svg version="1.1" id="Layer_1" xmlns="http://www.w3.org/2000/svg" xmlns:xlink="http://www.w3.org/1999/xlink" x="0px" y="0px"
	 viewBox="0 0 270.7 270.7" enable-background="new 0 0 270.7 270.7" xml:space="preserve">
<g>
	<path fill="white" d="M165.6,198.7h-1.7c-2.1,0-3.1,1-3.1,3.1v33.9c0,2.1,1,3.1,3.1,3.1h1.7c2.1,0,3.1-1,3.1-3.1v-33.9
		C168.7,199.7,167.7,198.7,165.6,198.7z"/>
	<path fill="white" d="M110.5,199.1h-3.4v19.8h3.4c2.1,0,3.1-1,3.1-3.1v-13.5C113.5,200.1,112.5,199.1,110.5,199.1z"/>
	<path fill="white" d="M193.9,199.2h-4v17.7h3.7c2.3,0,3.4-1.1,3.4-3.3v-11.4C196.9,200.2,195.9,199.2,193.9,199.2z"/>
	<path fill="white" d="M137.4,199.1H134v19.8h3.4c2.1,0,3.1-1,3.1-3.1v-13.5C140.5,200.1,139.5,199.1,137.4,199.1z"/>
	<polygon fill="white" points="129.7,40.8 124.9,80.3 134.6,80.3 	"/>
	<path fill="white" d="M235.4,14.9H35.3C24,14.9,14.9,24,14.9,35.3v200.1c0,11.2,9.1,20.4,20.4,20.4h200.1
		c11.2,0,20.4-9.1,20.4-20.4V35.3C255.8,24,246.6,14.9,235.4,14.9z M229.5,186.1h-3.8h-3.1h-3.2h-0.6h-3.2h-3.1h-3.8l-16.6-38.3
		l16.6-38.3h3.8h3.1h3.2h0.6h3.2h3.1h3.8l-16.6,38.3L229.5,186.1z M193.8,25.1h11.9V58h11.5V25.1h11.9v77.9h-11.9V68.8h-11.5v34.3
		h-11.9V25.1z M153.3,72.9h11.6v16c0,3,1.4,4.5,4.6,4.5h1.6c3.1,0,4.6-1.4,4.6-4.5V78.2c0-3.2-1.1-4.7-3.3-6.3l-12-8.8
		c-5.3-3.8-6.9-7.5-6.9-13.5V38.9c0-9.7,4.8-14.5,14.5-14.5h5c9.6,0,14.4,4.8,14.4,14.4V53h-11.7V39.3c0-3-1.4-4.5-4.5-4.5h-1.4
		c-3,0-4.5,1.4-4.5,4.5V48c0,3.2,1.1,4.8,3.3,6.3l12,8.8c5.2,3.8,6.9,7.1,6.9,13.5v12.7c0,9.7-4.8,14.5-14.5,14.5h-5.2
		c-9.7,0-14.4-4.8-14.4-14.4V72.9z M174.2,109.4l-16.6,38.3l16.6,38.3h-3.8h-3.1h-3.2h-0.6h-3.2h-3.1h-3.8l-16.6-38.3l16.6-38.3h3.8
		h3.1h3.2h0.6h3.2h3.1H174.2z M122.2,25H138l11.2,78h-11.8l-1.6-12.2h-12.4l-1.4,12.2h-11L122.2,25z M83.5,25.1h11.9v67.1h13.1v10.8
		H83.5V25.1z M41.9,38.9c0-9.7,4.8-14.5,14.5-14.5h5.8c9.7,0,14.4,4.7,14.4,14.4v15.9H64.9V39.5c0-3.1-1.4-4.6-4.5-4.6h-2
		c-3.1,0-4.6,1.4-4.6,4.6v49.2c0,3.1,1.4,4.6,4.6,4.6h2.2c3,0,4.5-1.4,4.5-4.6V71.1h11.7v18.1c0,9.7-4.8,14.5-14.5,14.5h-5.9
		c-9.7,0-14.5-4.8-14.5-14.5V38.9z M41.7,109.8h3.8h3.1h3.2h0.6h3.2h3.1h3.8l16.6,38.3l-16.6,38.3h-3.8h-3.1h-3.2h-0.6h-3.2h-3.1
		h-3.8l16.6-38.3L41.7,109.8z M65.7,236.1c0,6.7-3.3,10-10,10h-3.6c-6.7,0-9.9-3.3-9.9-9.9v-11.4h8v11c0,2.1,1,3.1,3.1,3.1h1.1
		c2.1,0,3.1-1,3.1-3.1v-7.4c0-2.2-0.8-3.2-2.3-4.4l-8.3-6.1c-3.7-2.6-4.8-5.1-4.8-9.3v-7.4c0-6.7,3.3-10,10-10h3.5
		c6.6,0,9.9,3.3,9.9,9.9v9.7h-8.1v-9.4c0-2.1-1-3.1-3.1-3.1h-1c-2.1,0-3.1,1-3.1,3.1v6c0,2.2,0.8,3.3,2.3,4.4l8.3,6.1
		c3.6,2.6,4.8,4.9,4.8,9.3V236.1z M86.5,148.2l-16.6-38.3h3.8h3.1H80h0.6h3.2h3.1h3.8l16.6,38.3l-16.6,38.3h-3.8h-3.1h-3.2H80h-3.2
		h-3.1h-3.8L86.5,148.2z M94,236.1c0,6.7-3.3,10-10,10h-4c-6.7,0-10-3.3-10-10v-44.2h8.2v43.8c0,2.1,1,3.1,3.1,3.1h1.3
		c2.1,0,3.1-1,3.1-3.1v-43.8H94V236.1z M114.7,148.2l-16.6-38.3h3.8h3.1h3.2h0.6h3.2h3.1h3.8l16.6,38.3l-16.6,38.3h-3.8H112h-3.2
		h-0.6H105h-3.1h-3.8L114.7,148.2z M121.7,216.2c0,6.7-3.3,10-10,10h-4.7v19.5h-8.2v-53.7h12.9c6.7,0,10,3.3,10,10V216.2z
		 M148.7,216.2c0,6.7-3.3,10-10,10H134v19.5h-8.2v-53.7h12.9c6.7,0,10,3.3,10,10V216.2z M176.9,236.1c0,6.7-3.3,10-10,10h-4.4
		c-6.7,0-10-3.3-10-10v-34.7c0-6.7,3.3-10,10-10h4.4c6.7,0,10,3.3,10,10V236.1z M163.9,147.8l16.6-38.3h3.8h3.1h3.2h0.6h3.2h3.1h3.8
		l-16.6,38.3l16.6,38.3h-3.8h-3.1h-3.2h-0.6h-3.2h-3.1h-3.8L163.9,147.8z M205.2,245.6H197v-18.1c0-2.4-1.1-3.5-3.5-3.5h-3.7v21.6
		h-8.2v-53.7h13.5c6.7,0,10,3.3,10,10V212c0,4.8-1.7,7.1-4.7,8.3c3.4,0.9,4.8,3,4.8,7.1V245.6z M230.6,199.4h-7.4v46.3H215v-46.3
		h-7.4v-7.4h22.9V199.4z"/>
	<path d="M56.4,103.7h5.9c9.7,0,14.5-4.8,14.5-14.5V71.1H65.1v17.6c0,3.1-1.4,4.6-4.5,4.6h-2.2c-3.1,0-4.6-1.4-4.6-4.6V39.5
		c0-3.1,1.4-4.6,4.6-4.6h2c3,0,4.5,1.4,4.5,4.6v15.3h11.7V38.8c0-9.7-4.7-14.4-14.4-14.4h-5.8c-9.7,0-14.5,4.8-14.5,14.5v50.3
		C41.9,99,46.7,103.7,56.4,103.7z"/>
	<polygon points="108.5,92.3 95.4,92.3 95.4,25.1 83.5,25.1 83.5,103.1 108.5,103.1 	"/>
	<path d="M123.5,90.8h12.4l1.6,12.2h11.8L138,25h-15.8l-11.1,78h11L123.5,90.8z M129.7,40.8l4.9,39.4h-9.7L129.7,40.8z"/>
	<path d="M167.6,103.7h5.2c9.7,0,14.5-4.8,14.5-14.5V76.6c0-6.3-1.7-9.7-6.9-13.5l-12-8.8c-2.2-1.6-3.3-3.1-3.3-6.3v-8.7
		c0-3,1.4-4.5,4.5-4.5h1.4c3,0,4.5,1.4,4.5,4.5V53h11.7V38.8c0-9.6-4.8-14.4-14.4-14.4h-5c-9.7,0-14.5,4.8-14.5,14.5v10.7
		c0,6,1.6,9.7,6.9,13.5l12,8.8c2.2,1.7,3.3,3.1,3.3,6.3v10.7c0,3-1.4,4.5-4.6,4.5h-1.6c-3.1,0-4.6-1.4-4.6-4.5v-16h-11.6v16.5
		C153.3,99,157.9,103.7,167.6,103.7z"/>
	<polygon points="205.7,68.8 217.2,68.8 217.2,103.1 229.1,103.1 229.1,25.1 217.2,25.1 217.2,58 205.7,58 205.7,25.1 193.8,25.1 
		193.8,103.1 205.7,103.1 	"/>
	<polygon points="45.5,186.5 48.6,186.5 51.8,186.5 52.4,186.5 55.6,186.5 58.7,186.5 62.5,186.5 79.1,148.2 62.5,109.8 58.7,109.8 
		55.6,109.8 52.4,109.8 51.8,109.8 48.6,109.8 45.5,109.8 41.7,109.8 58.3,148.2 41.7,186.5 	"/>
	<polygon points="76.8,186.5 80,186.5 80.6,186.5 83.8,186.5 86.9,186.5 90.7,186.5 107.3,148.2 90.7,109.8 86.9,109.8 83.8,109.8 
		80.6,109.8 80,109.8 76.8,109.8 73.7,109.8 69.9,109.8 86.5,148.2 69.9,186.5 73.7,186.5 	"/>
	<polygon points="105,186.5 108.2,186.5 108.8,186.5 112,186.5 115.1,186.5 118.9,186.5 135.5,148.2 118.9,109.8 115.1,109.8 
		112,109.8 108.8,109.8 108.2,109.8 105,109.8 101.9,109.8 98.1,109.8 114.7,148.2 98.1,186.5 101.9,186.5 	"/>
	<polygon points="225.7,109.4 222.6,109.4 219.4,109.4 218.8,109.4 215.6,109.4 212.5,109.4 208.7,109.4 192.1,147.8 208.7,186.1 
		212.5,186.1 215.6,186.1 218.8,186.1 219.4,186.1 222.6,186.1 225.7,186.1 229.5,186.1 212.9,147.8 229.5,109.4 	"/>
	<polygon points="187.4,186.1 190.6,186.1 191.2,186.1 194.4,186.1 197.5,186.1 201.3,186.1 184.7,147.8 201.3,109.4 197.5,109.4 
		194.4,109.4 191.2,109.4 190.6,109.4 187.4,109.4 184.3,109.4 180.5,109.4 163.9,147.8 180.5,186.1 184.3,186.1 	"/>
	<polygon points="167.3,109.4 164.1,109.4 163.5,109.4 160.3,109.4 157.2,109.4 153.4,109.4 136.8,147.8 153.4,186.1 157.2,186.1 
		160.3,186.1 163.5,186.1 164.1,186.1 167.3,186.1 170.4,186.1 174.2,186.1 157.6,147.8 174.2,109.4 170.4,109.4 	"/>
	<path d="M61,218.1l-8.3-6.1c-1.5-1.1-2.3-2.1-2.3-4.4v-6c0-2.1,1-3.1,3.1-3.1h1c2.1,0,3.1,1,3.1,3.1v9.4h8.1v-9.7
		c0-6.6-3.3-9.9-9.9-9.9h-3.5c-6.7,0-10,3.3-10,10v7.4c0,4.1,1.1,6.7,4.8,9.3l8.3,6.1c1.5,1.2,2.3,2.1,2.3,4.4v7.4
		c0,2.1-1,3.1-3.1,3.1h-1.1c-2.1,0-3.1-1-3.1-3.1v-11h-8v11.4c0,6.6,3.2,9.9,9.9,9.9h3.6c6.7,0,10-3.3,10-10v-8.7
		C65.7,223,64.6,220.7,61,218.1z"/>
	<path d="M85.8,235.7c0,2.1-1,3.1-3.1,3.1h-1.3c-2.1,0-3.1-1-3.1-3.1v-43.8h-8.2v44.2c0,6.7,3.3,10,10,10h4c6.7,0,10-3.3,10-10
		v-44.2h-8.2V235.7z"/>
	<path d="M111.8,191.9H98.9v53.7h8.2v-19.5h4.7c6.7,0,10-3.3,10-10v-14.3C121.7,195.2,118.4,191.9,111.8,191.9z M113.5,215.8
		c0,2.1-1,3.1-3.1,3.1h-3.4v-19.8h3.4c2.1,0,3.1,1,3.1,3.1V215.8z"/>
	<path d="M138.7,191.9h-12.9v53.7h8.2v-19.5h4.7c6.7,0,10-3.3,10-10v-14.3C148.7,195.2,145.4,191.9,138.7,191.9z M140.5,215.8
		c0,2.1-1,3.1-3.1,3.1H134v-19.8h3.4c2.1,0,3.1,1,3.1,3.1V215.8z"/>
	<path d="M166.9,191.5h-4.4c-6.7,0-10,3.3-10,10v34.7c0,6.7,3.3,10,10,10h4.4c6.7,0,10-3.3,10-10v-34.7
		C176.9,194.8,173.6,191.5,166.9,191.5z M168.7,235.7c0,2.1-1,3.1-3.1,3.1h-1.7c-2.1,0-3.1-1-3.1-3.1v-33.9c0-2.1,1-3.1,3.1-3.1h1.7
		c2.1,0,3.1,1,3.1,3.1V235.7z"/>
	<path d="M200.5,220.3c3-1.2,4.7-3.5,4.7-8.3v-10.1c0-6.7-3.3-10-10-10h-13.5v53.7h8.2v-21.6h3.7c2.4,0,3.5,1.1,3.5,3.5v18.1h8.2
		v-18.3C205.2,223.3,203.8,221.2,200.5,220.3z M196.9,213.6c0,2.2-1.1,3.3-3.4,3.3h-3.7v-17.7h4c2.1,0,3.1,1,3.1,3.1V213.6z"/>
	<polygon points="207.7,199.4 215,199.4 215,245.6 223.2,245.6 223.2,199.4 230.6,199.4 230.6,191.9 207.7,191.9 	"/>
	<path d="M235.4,0H35.3C15.8,0,0,15.8,0,35.3v200.1c0,19.5,15.8,35.3,35.3,35.3h200.1c19.5,0,35.3-15.8,35.3-35.3V35.3
		C270.7,15.8,254.8,0,235.4,0z M255.8,235.4c0,11.2-9.1,20.4-20.4,20.4H35.3c-11.2,0-20.4-9.1-20.4-20.4V35.3
		c0-11.2,9.1-20.4,20.4-20.4h200.1c11.2,0,20.4,9.1,20.4,20.4V235.4z"/>
</g>
</svg>
