<?xml version="1.0" encoding="utf-8"?>
<!-- Generator: Adobe Illustrator 18.1.1, SVG Export Plug-In . SVG Version: 6.00 Build 0)  -->
<!DOCTYPE svg PUBLIC "-//W3C//DTD SVG 1.1//EN" "http://www.w3.org/Graphics/SVG/1.1/DTD/svg11.dtd">
<svg version="1.1" id="Layer_1" xmlns="http://www.w3.org/2000/svg" xmlns:xlink="http://www.w3.org/1999/xlink" x="0px" y="0px"
	 viewBox="0 0 271 271" enable-background="new 0 0 271 271" xml:space="preserve">
<g>
	<path fill="white" d="M249.6,259.6H21.3c-6.6,0-12-5.4-12-12V24.7c0-6.6,5.4-12,12-12h228.3c6.6,0,12,5.4,12,12v222.9
		C261.6,254.2,256.2,259.6,249.6,259.6z"/>
	<polygon points="56.7,89 76.2,89 76.2,73.4 56.7,73.4 56.7,40.9 77,40.9 77,25.2 39.5,25.2 39.5,138 56.7,138 	"/>
	<path d="M102.8,92.7h7.7c5,0,7.2,2.3,7.2,7.2v38H135V99.7c0-8.5-2.9-12.9-10-14.8c6.3-2.6,9.8-7.4,9.8-17.4V46.2
		c0-14-6.9-20.9-20.9-20.9H85.6V138h17.2V92.7z M102.8,40.5h8.4c4.3,0,6.4,2.1,6.4,6.4v23.8c0,4.7-2.3,6.9-7.1,6.9h-7.7V40.5z"/>
	<polygon points="183.7,122.4 162.3,122.4 162.3,88.4 182.6,88.4 182.6,72.8 162.3,72.8 162.3,40.9 183.4,40.9 183.4,25.2 145,25.2 
		145,138 183.7,138 	"/>
	<polygon points="231.5,122.4 210.1,122.4 210.1,88.4 230.4,88.4 230.4,72.8 210.1,72.8 210.1,40.9 231.2,40.9 231.2,25.2 
		192.9,25.2 192.9,138 231.5,138 	"/>
	<path d="M58,218.1l-8.3-6.1c-1.5-1.1-2.3-2.2-2.3-4.4v-6c0-2.1,1-3.1,3.1-3.1h1c2.1,0,3.1,1,3.1,3.1v9.4h8.1v-9.8
		c0-6.6-3.3-9.9-9.9-9.9h-3.5c-6.7,0-10,3.3-10,10v7.4c0,4.1,1.1,6.7,4.8,9.3l8.3,6.1c1.5,1.2,2.3,2.2,2.3,4.4v7.4
		c0,2.1-1,3.1-3.1,3.1h-1.1c-2.2,0-3.1-1-3.1-3.1v-11.1h-8v11.4c0,6.6,3.2,9.9,9.9,9.9h3.6c6.7,0,10-3.3,10-10v-8.8
		C62.7,223,61.6,220.7,58,218.1z"/>
	<polygon points="83.3,214.6 75.4,214.6 75.4,191.9 67.2,191.9 67.2,245.7 75.4,245.7 75.4,222 83.3,222 83.3,245.7 91.6,245.7 
		91.6,191.9 83.3,191.9 	"/>
	<rect x="96.5" y="191.9" width="8.2" height="53.8"/>
	<path d="M122.7,191.9h-12.9v53.8h8.2v-19.5h4.7c6.7,0,10-3.3,10-10v-14.3C132.7,195.2,129.3,191.9,122.7,191.9z M124.4,215.8
		c0,2.2-1,3.1-3.1,3.1H118v-19.8h3.4c2.1,0,3.1,1,3.1,3.1V215.8z"/>
	<path d="M149.6,191.9h-12.9v53.8h8.2v-19.5h4.7c6.7,0,10-3.3,10-10v-14.3C159.6,195.2,156.3,191.9,149.6,191.9z M151.4,215.8
		c0,2.2-1,3.1-3.1,3.1h-3.4v-19.8h3.4c2.1,0,3.1,1,3.1,3.1V215.8z"/>
	<rect x="163.8" y="191.9" width="8.2" height="53.8"/>
	<polygon points="194.2,216.1 194.3,225.1 186.6,191.9 177,191.9 177,245.7 184.4,245.7 184.4,218.9 184.3,209.5 192.7,245.7 
		201.6,245.7 201.6,191.9 194.2,191.9 	"/>
	<path d="M218.4,223.4h4.3v12.4c0,2.2-1,3.1-3.1,3.1h-1.8c-2.2,0-3.1-1-3.1-3.1v-34c0-2.2,1-3.1,3.1-3.1h1.7c2.1,0,3.1,1,3.1,3.1
		v8.2h8.1v-8.7c0-6.6-3.2-9.9-9.9-9.9h-4.3c-6.7,0-10,3.3-10,10v34.7c0,6.7,3.3,10,10,10h4.4c6.7,0,10-3.3,10-10v-19.8h-12.3V223.4z
		"/>
	<path d="M235.7,0H35.3C15.8,0,0,15.8,0,35.3v200.3C0,255.1,15.8,271,35.3,271h200.3c19.5,0,35.3-15.8,35.3-35.3V35.3
		C271,15.8,255.1,0,235.7,0z M256.1,235.7c0,11.3-9.2,20.4-20.4,20.4H35.3c-11.3,0-20.4-9.2-20.4-20.4V35.3
		c0-11.3,9.2-20.4,20.4-20.4h200.3c11.3,0,20.4,9.2,20.4,20.4V235.7z"/>
	<rect x="178.3" y="156.8" width="54.2" height="19.1"/>
	<rect x="109" y="156.8" width="54.2" height="19.1"/>
	<rect x="38.8" y="156.8" width="54.2" height="19.1"/>
</g>
</svg>
